HIERARCHY
ROOT Hips
{
	OFFSET 0.000000 0.000000 0.000000 
	CHANNELS 6 Xposition Yposition Zposition Zrotation Yrotation Xrotation
	JOINT LeftUpLeg
	{
		OFFSET 1.363060 -1.794630 0.839290 
		CHANNELS 3 Zrotation Yrotation Xrotation
		JOINT LeftLeg
		{
			OFFSET 2.448110 -6.726130 0.000000 
			CHANNELS 3 Zrotation Yrotation Xrotation
			JOINT LeftFoot
			{
				OFFSET 2.562200 -7.039590 0.000000 
				CHANNELS 3 Zrotation Yrotation Xrotation
				JOINT LeftToeBase
				{
					OFFSET 0.157640 -0.433110 2.322550 
					CHANNELS 3 Zrotation Yrotation Xrotation
					End Site
					{
						OFFSET 0.000000 0.000000 0.000000 
					}
				}
			}
		}
	}
	JOINT RightUpLeg
	{
		OFFSET -1.305520 -1.794630 0.839290 
		CHANNELS 3 Zrotation Yrotation Xrotation
		JOINT RightLeg
		{
			OFFSET -2.542530 -6.985550 0.000000 
			CHANNELS 3 Zrotation Yrotation Xrotation
			JOINT RightFoot
			{
				OFFSET -2.568260 -7.056230 0.000000 
				CHANNELS 3 Zrotation Yrotation Xrotation
				JOINT RightToeBase
				{
					OFFSET -0.164730 -0.452590 2.363150 
					CHANNELS 3 Zrotation Yrotation Xrotation
					End Site
					{
						OFFSET 0.000000 0.000000 0.000000 
					}
				}
			}
		}
	}
	JOINT Spine
	{
		OFFSET 0.028270 2.035590 -0.193380 
		CHANNELS 3 Zrotation Yrotation Xrotation
		JOINT Spine1
		{
			OFFSET 0.056720 2.048850 -0.042750 
			CHANNELS 3 Zrotation Yrotation Xrotation
			JOINT Neck1
			{
				OFFSET -0.054170 1.746240 0.172020 
				CHANNELS 3 Zrotation Yrotation Xrotation
				JOINT Head
				{
					OFFSET 0.104070 1.761360 -0.123970 
					CHANNELS 3 Zrotation Yrotation Xrotation
					End Site
					{
						OFFSET 0.000000 0.000000 0.000000 
					}
				}
			}
			JOINT LeftArm
			{
				OFFSET 3.362410 1.200890 -0.311210 
				CHANNELS 3 Zrotation Yrotation Xrotation
				JOINT LeftForeArm
				{
					OFFSET 4.983000 -0.000000 -0.000000 
					CHANNELS 3 Zrotation Yrotation Xrotation
					JOINT LeftHand
					{
						OFFSET 3.483560 -0.000000 -0.000000 
						CHANNELS 3 Zrotation Yrotation Xrotation
						JOINT LeftHandIndex1
						{
							OFFSET 0.715260 -0.000000 -0.000000 
							CHANNELS 3 Zrotation Yrotation Xrotation
							End Site
							{
								OFFSET 0.000000 0.000000 0.000000 
							}
						}
					}
				}
			}
			JOINT RightArm
			{
				OFFSET -3.136600 1.374050 -0.404650 
				CHANNELS 3 Zrotation Yrotation Xrotation
				JOINT RightForeArm
				{
					OFFSET -5.241900 -0.000000 -0.000000 
					CHANNELS 3 Zrotation Yrotation Xrotation
					JOINT RightHand
					{
						OFFSET -3.444170 -0.000000 -0.000000 
						CHANNELS 3 Zrotation Yrotation Xrotation
						JOINT RightHandIndex1
						{
							OFFSET -0.622530 -0.000000 -0.000000 
							CHANNELS 3 Zrotation Yrotation Xrotation
							End Site
							{
								OFFSET 0.000000 0.000000 0.000000 
							}
						}
					}
				}
			}
		}
	}
}
MOTION
Frames: 18
Frame Time: 0.041667
-0.150482 18.357031 9.101535 -9.147509 2.222691 14.668834 -21.078216 -50.967137 24.185012 -4.094167 -2.279345 -3.660599 -12.951506 46.751763 -43.101434 0.924000 6.123900 17.144500 21.303970 27.564189 0.939072 3.703119 -0.613094 2.510291 8.609700 -26.346998 -5.015248 -0.002100 0.295400 -0.811600 17.226498 7.091371 -24.553087 -11.132487 -0.103422 -6.046823 20.812339 -25.254575 29.396588 3.361300 -10.560200 9.438600 -85.033828 12.442185 11.198475 11.515139 -12.986200 -2.081282 0.275181 1.871167 21.663370 -7.125000 0.000000 0.000000 83.639787 -14.642469 -2.865976 -15.064124 19.652748 -3.311495 0.921116 1.854803 35.972076 7.125000 0.000000 0.000000 
-0.146899 18.357663 9.086993 -9.576082 2.418504 14.555280 -20.497927 -50.785710 23.787068 -4.094470 -2.304422 -3.621600 -12.866264 46.460207 -42.809093 0.970700 6.272400 17.576800 21.529138 27.517022 0.839931 3.698777 -0.648501 2.576634 8.578678 -26.294389 -5.088829 -0.000100 -0.069500 0.190900 19.510427 7.321310 -23.726836 -11.751596 -0.342559 -6.457476 19.830227 -24.844982 30.022924 3.186400 -10.422900 9.616900 -85.621063 12.279255 10.553242 11.528020 -13.000028 -2.082051 0.283560 1.864138 21.786291 -7.125000 0.000000 0.000000 83.274562 -14.485999 -2.309802 -15.046470 19.688995 -3.310940 0.907484 1.851463 35.828570 7.125000 0.000000 0.000000 
-0.143422 18.357663 9.072345 -9.977724 2.601953 14.475080 -19.790208 -50.432646 23.169014 -4.081162 -2.320615 -3.572036 -13.036908 46.354059 -42.103071 0.931400 6.147700 17.213500 21.742247 27.486298 0.719174 3.693573 -0.686139 2.641136 8.556063 -26.270943 -5.112813 -0.007900 -0.572900 1.574300 21.636731 7.498472 -23.025750 -12.281750 -0.589716 -6.885254 18.759298 -24.385401 30.655078 2.995800 -10.275400 9.800600 -86.285469 11.995609 9.197079 11.445080 -12.883439 -2.053340 0.317655 1.882669 22.629169 -7.125000 0.000000 0.000000 82.881502 -14.364541 -1.710091 -14.991969 19.685637 -3.296106 0.884797 1.848768 35.749336 7.125000 0.000000 0.000000 
-0.137837 18.349759 9.042207 -10.592744 2.879952 13.911386 -18.817497 -49.490126 22.447810 -4.053018 -2.377458 -3.544927 -13.473718 46.232820 -40.457599 0.812500 5.751900 16.066400 22.329957 27.223725 0.876343 3.685375 -0.722088 2.760571 8.493055 -26.162585 -5.064117 -0.014000 -0.763200 2.097600 24.173170 7.531294 -21.151519 -12.989450 -0.899734 -8.032283 16.843515 -23.779225 32.075751 2.517400 -10.092000 10.165700 -86.920691 11.309571 7.177959 11.234992 -12.633573 -1.990261 0.380480 1.928912 24.249160 -7.125000 0.000000 0.000000 82.415131 -13.995136 -1.259544 -14.906493 19.673171 -3.268371 0.863213 1.850876 35.854507 7.125000 0.000000 0.000000 
-0.137204 18.349759 9.042734 -10.660238 2.937723 13.922040 -18.894826 -49.522341 22.540885 -4.060659 -2.394585 -3.546024 -13.434842 46.213933 -40.562976 0.818200 5.771900 16.123900 22.299633 27.227374 0.862401 3.687342 -0.719488 2.708160 8.502472 -26.213483 -5.023983 -0.013300 -0.745100 2.047600 25.244878 7.573354 -21.297550 -13.056101 -1.090578 -8.285766 16.115827 -23.474905 32.585045 2.432700 -10.029100 10.357600 -87.535880 11.558709 6.569383 11.292921 -12.694805 -2.006279 0.386714 1.927997 24.282852 -7.125000 0.000000 0.000000 82.059211 -14.182420 -0.494927 -14.732261 19.512740 -3.209791 0.867992 1.828775 35.721161 7.125000 0.000000 0.000000 
-0.136572 18.349970 9.042523 -10.633309 2.983300 14.012143 -18.935183 -49.494873 22.519941 -4.063337 -2.389294 -3.527806 -13.399460 46.169450 -40.577219 0.818800 5.774000 16.130000 22.265884 27.361479 0.928566 3.695391 -0.698079 2.600075 8.543109 -26.348927 -5.093358 -0.013100 -0.739800 2.033100 25.534112 7.675076 -22.141189 -12.943512 -1.206725 -8.557812 15.398907 -23.126364 33.331591 2.331700 -9.927100 10.588100 -87.986084 12.351492 7.564288 11.539489 -13.005688 -2.079754 0.322663 1.882819 22.870806 -7.125000 0.000000 0.000000 81.751163 -14.555801 0.405778 -14.466323 19.237221 -3.115707 0.880217 1.794225 35.242209 7.125000 0.000000 0.000000 
-0.136151 18.349654 9.041785 -10.675731 3.021734 14.042318 -18.951648 -49.460242 22.506104 -4.065810 -2.399772 -3.519641 -13.420780 46.178233 -40.536022 0.810800 5.746400 16.050300 22.247238 27.535585 0.997190 3.701002 -0.688375 2.528905 8.587799 -26.488591 -5.180990 -0.011800 -0.702200 1.929800 26.483462 7.720648 -22.390721 -12.919946 -1.390980 -8.825358 14.916879 -22.728540 33.529513 2.338200 -9.809400 10.681700 -88.615184 12.794614 7.608812 11.691383 -13.181084 -2.125566 0.284826 1.871168 22.221956 -7.125000 0.000000 0.000000 81.375021 -14.805704 1.274442 -14.296838 19.088493 -3.062772 0.888769 1.770119 34.955911 7.125000 0.000000 0.000000 
-0.138574 18.353026 9.050426 -10.871895 3.140358 13.922291 -19.090284 -49.629806 22.631265 -4.076821 -2.460328 -3.495516 -13.473197 46.265431 -40.644745 0.802200 5.716200 15.963300 22.089351 27.717755 0.981768 3.705301 -0.674048 2.459364 8.658029 -26.666105 -5.278032 -0.011300 -0.686400 1.886200 30.266007 7.194735 -20.001895 -13.031946 -2.006848 -9.540841 14.302694 -21.870835 33.568965 2.412000 -9.493100 10.940000 -90.153698 12.285416 5.649042 11.817010 -13.274751 -2.154242 0.289155 1.885467 22.454597 -7.125000 0.000000 0.000000 80.121290 -14.314710 3.075838 -14.097498 18.985836 -3.018117 0.895635 1.753556 34.858600 7.125000 0.000000 0.000000 
-0.143422 18.359876 9.068446 -10.642603 3.130969 14.277226 -19.278422 -50.007472 22.589126 -4.074025 -2.439395 -3.509671 -13.488101 46.438530 -40.971267 0.798800 5.704700 15.930000 21.753874 27.926881 0.832805 3.712968 -0.642865 2.352720 8.749927 -26.877792 -5.415326 -0.011400 -0.689400 1.894700 30.011800 7.160071 -20.386177 -12.846342 -1.997378 -9.072822 14.305568 -21.871767 33.560728 2.405500 -9.487400 10.935200 -90.178502 12.329374 5.609950 11.850317 -13.286848 -2.157184 0.284245 1.868265 22.437548 -7.125000 0.000000 0.000000 80.158146 -14.342130 3.018267 -14.104335 18.973455 -3.021471 0.900764 1.752832 34.859907 7.125000 0.000000 0.000000 
-0.145845 18.363037 9.078036 -10.547490 3.104334 14.449413 -19.361745 -50.180469 22.576170 -4.075857 -2.432448 -3.516200 -13.435183 46.465633 -41.202472 0.812200 5.751200 16.064100 21.595837 28.041914 0.764760 3.717190 -0.623201 2.292747 8.783487 -26.948378 -5.502926 -0.013100 -0.738600 2.029700 29.973883 7.141703 -20.512510 -12.768562 -2.000972 -8.843255 14.290044 -21.846414 33.567364 2.401600 -9.472200 10.938600 -90.245352 12.328447 5.537836 11.878229 -13.300387 -2.155318 0.281280 1.834613 22.452328 -7.125000 0.000000 0.000000 80.177469 -14.369908 2.982020 -14.128026 18.994716 -3.031529 0.901250 1.755422 34.922330 7.125000 0.000000 0.000000 
-0.145951 18.362510 9.078668 -10.579300 3.070151 14.442103 -19.302154 -50.121457 22.530022 -4.079238 -2.429841 -3.495901 -13.337395 46.335363 -41.236682 0.836300 5.833800 16.303000 21.627264 28.102501 0.800232 3.717951 -0.621814 2.294191 8.775458 -26.924662 -5.557638 -0.017500 -0.854800 2.349400 30.090171 7.141787 -20.452185 -12.792492 -2.013940 -8.845752 14.352826 -21.821354 33.521971 2.431000 -9.455700 10.934000 -90.337828 12.321054 5.512878 11.902987 -13.321617 -2.155094 0.270840 1.806028 22.447465 -7.125000 0.000000 0.000000 80.186025 -14.381969 2.964451 -14.132511 19.000310 -3.034481 0.899867 1.761075 34.995056 7.125000 0.000000 0.000000 
-0.146162 18.361983 9.079511 -10.591765 3.057373 14.433019 -19.273908 -50.082863 22.498913 -4.081223 -2.427736 -3.481866 -13.277520 46.255315 -41.256986 0.851800 5.886000 16.454000 21.645786 28.129772 0.827577 3.718321 -0.622231 2.297342 8.781046 -26.938934 -5.584489 -0.017600 -0.857200 2.356000 30.147484 7.144670 -20.416647 -12.810526 -2.017246 -8.836987 14.465000 -21.816633 33.426800 2.471000 -9.445600 10.914100 -90.413090 12.314731 5.571126 11.921043 -13.333999 -2.154501 0.253443 1.787118 22.407674 -7.125000 0.000000 0.000000 80.194443 -14.369090 2.885269 -14.108357 18.965454 -3.027267 0.909727 1.762572 35.038714 7.125000 0.000000 0.000000 
-0.146267 18.361878 9.080670 -10.577168 3.066827 14.423462 -19.292134 -50.056487 22.500984 -4.080856 -2.435126 -3.502709 -13.304125 46.284458 -41.229206 0.844800 5.862500 16.386000 21.654005 28.166878 0.888082 3.721227 -0.608176 2.263046 8.803524 -26.999271 -5.626120 -0.014700 -0.782800 2.151500 30.132928 7.152724 -20.446792 -12.813638 -2.012787 -8.815682 14.519844 -21.819250 33.332899 2.491300 -9.445800 10.882500 -90.473192 12.320007 5.646309 11.928334 -13.331373 -2.149366 0.235813 1.765400 22.382433 -7.125000 0.000000 0.000000 80.212282 -14.380581 2.789950 -14.085364 18.930046 -3.020572 0.929197 1.756164 35.016944 7.125000 0.000000 0.000000 
-0.146899 18.362194 9.080038 -10.553949 3.077711 14.432585 -19.263584 -50.019653 22.446065 -4.078383 -2.437042 -3.515795 -13.328675 46.290396 -41.155280 0.843000 5.856400 16.368500 21.656934 28.204024 0.926347 3.723006 -0.599203 2.234312 8.829034 -27.073008 -5.631827 -0.011900 -0.705300 1.938200 30.043487 7.179872 -20.601088 -12.795706 -2.003370 -8.797853 14.587208 -21.831743 33.265326 2.517400 -9.450500 10.857900 -90.533594 12.364459 5.693133 11.939274 -13.333825 -2.145833 0.212681 1.746677 22.396195 -7.125000 0.000000 0.000000 80.241735 -14.435035 2.670954 -14.070713 18.906875 -3.014443 0.938241 1.748731 35.033853 7.125000 0.000000 0.000000 
-0.147637 18.362510 9.078563 -10.524633 3.081797 14.452926 -19.238281 -50.003448 22.392583 -4.075281 -2.430444 -3.509450 -13.341909 46.279251 -41.080508 0.844700 5.862200 16.385000 21.637957 28.228891 0.923584 3.723608 -0.598504 2.226015 8.842023 -27.108886 -5.637896 -0.012600 -0.725700 1.994300 29.878343 7.218520 -20.796259 -12.775037 -1.981786 -8.776330 14.628329 -21.847654 33.238204 2.530000 -9.456800 10.840500 -90.569967 12.395504 5.590321 11.934574 -13.320236 -2.140821 0.194745 1.743986 22.587981 -7.125000 0.000000 0.000000 80.286212 -14.485201 2.496112 -14.064585 18.893455 -3.009684 0.935428 1.747400 35.105120 7.125000 0.000000 0.000000 
-0.147637 18.362089 9.079406 -10.506481 3.079860 14.470629 -19.315239 -50.070169 22.479676 -4.075762 -2.425534 -3.506855 -13.345533 46.309136 -41.131668 0.841100 5.850000 16.349900 21.621009 28.278473 0.944621 3.725631 -0.595988 2.226528 8.824555 -27.049667 -5.743958 -0.020300 -0.920700 2.530700 29.767568 7.245455 -20.920117 -12.770627 -1.965874 -8.738673 14.623742 -21.856270 33.225892 2.527400 -9.462300 10.827100 -90.610886 12.372025 5.224775 11.898150 -13.269221 -2.127412 0.201103 1.750548 22.992166 -7.125000 0.000000 0.000000 80.318731 -14.513456 2.345683 -14.063262 18.887013 -3.008621 0.930585 1.753820 35.106867 7.125000 0.000000 0.000000 
-0.148269 18.361667 9.079933 -10.508769 3.080429 14.468592 -19.374193 -50.119135 22.560017 -4.075991 -2.424652 -3.509246 -13.378328 46.371432 -41.163225 0.835000 5.829400 16.290100 21.625971 28.299378 0.961392 3.725759 -0.603491 2.255856 8.792590 -26.952683 -5.828320 -0.026900 -1.059000 2.911300 29.780317 7.256016 -20.949295 -12.773538 -1.966097 -8.723204 14.669685 -21.859331 33.172007 2.545800 -9.462400 10.811300 -90.657794 12.313596 4.801442 11.842630 -13.196256 -2.110083 0.215994 1.766095 23.358327 -7.125000 0.000000 0.000000 80.321371 -14.511514 2.199226 -14.047102 18.865120 -3.002680 0.926680 1.758565 35.124692 7.125000 0.000000 0.000000 
-0.150061 18.362510 9.077509 -10.521417 3.091419 14.431619 -19.296668 -50.023660 22.459992 -4.070455 -2.425775 -3.506951 -13.479482 46.426948 -40.953343 0.807500 5.734900 16.017200 21.644605 28.302559 0.968168 3.724870 -0.614484 2.288530 8.786868 -26.934164 -5.860055 -0.028800 -1.095600 3.011900 29.893187 7.249481 -20.858915 -12.782522 -1.975782 -8.759821 14.747968 -21.855489 33.087725 2.578200 -9.458200 10.794400 -90.687827 12.244152 4.622860 11.802867 -13.145207 -2.098653 0.228054 1.777715 23.450699 -7.125000 0.000000 0.000000 80.284765 -14.453259 2.085992 -14.008451 18.817314 -2.987980 0.928910 1.755321 35.202488 7.125000 0.000000 0.000000 
